<svg height="48" viewBox="0 0 48 48" width="48" xmlns="http://www.w3.org/2000/svg"><path d="m12.332031 5c-1.289 0-2.332031.9205938-2.332031 2.0585938v18.8554682c-3.599 2.133-6 6.341938-6 10.585938 0 .829.672 1.5 1.5 1.5s1.5-.671 1.5-1.5c0-2.515 1.177-5.079172 3-6.826172v8.267578c0 1.138 1.043031 2.058594 2.332031 2.058594h3.667969v4.5c0 .829.672 1.5 1.5 1.5s1.5-.671 1.5-1.5v-4.5h10v4.5c0 .829.672 1.5 1.5 1.5s1.5-.671 1.5-1.5v-4.5h3.667969c1.289 0 2.332031-.920594 2.332031-2.058594v-9.498047c3.985-1.834 6.058594-5.668781 6.058594-9.925781 0-.85-.689063-1.539062-1.539063-1.539062s-1.539062.689062-1.539062 1.539062c0 2.563-.843469 4.89886-2.980469 6.38086v-17.8398442c0-1.138-1.043984-2.0585938-2.333984-2.0585938zm.667969 3h22v29h-22zm4.5 4a1.5 1.5 0 0 0 0 3 1.5 1.5 0 0 0 0-3zm13 0a1.5 1.5 0 0 0 0 3 1.5 1.5 0 0 0 0-3zm-9.117188 5.003906c-.582656.045282-1.11014.431985-1.30664 1.021485-.263.785.163219 1.636437.949219 1.898437l.65625.21875c.908.303 1.862406.453125 2.816406.453125s1.910359-.150125 2.818359-.453125l.65625-.21875c.786-.262 1.212219-1.113437.949219-1.898437-.263-.786-1.113437-1.210266-1.898437-.947266l-.65625.21875c-1.205001.401-2.531329.401-3.736329 0l-.65625-.21875c-.1965-.066-.397578-.089313-.591797-.074219zm-2.882812 10.996094c-.276 0-.5.224-.5.5v1.5h-1.5c-.276 0-.5.224-.5.5v1c0 .276.224.5.5.5h1.5v1.5c0 .276.224.5.5.5h1c.276 0 .5-.224.5-.5v-1.5h1.5c.276 0 .5-.224.5-.5v-1c0-.276-.224-.5-.5-.5h-1.5v-1.5c0-.276-.224-.5-.5-.5zm11.5 2a2 2 0 0 0 0 4 2 2 0 0 0 0-4z"/></svg>