<svg height="48" viewBox="0 0 48 48" width="48" xmlns="http://www.w3.org/2000/svg"><path d="m24 5c-11.027708 0-20 8.972292-20 20v.5c0 2.467501 2.0324991 4.5 4.5 4.5.1768186 0 .3282367-.081277.5-.101562v12.601562a1.50015 1.50015 0 1 0 3 0v-14a1.50015 1.50015 0 0 0 -.021484-.271484c.603568-.766201 1.021484-1.687503 1.021484-2.728516a1.50015 1.50015 0 1 0 -3 0c0 .846499-.6535009 1.5-1.5 1.5s-1.5-.653501-1.5-1.5v-.5c0-9.406292 7.593708-17 17-17s17 7.593708 17 17v.5c0 .846499-.653501 1.5-1.5 1.5s-1.5-.653501-1.5-1.5a1.50015 1.50015 0 1 0 -3 0c0 1.041013.417912 1.962315 1.021484 2.728516a1.50015 1.50015 0 0 0 -.021484.271484v14a1.50015 1.50015 0 1 0 3 0v-12.601562c.171763.020285.323181.101562.5.101562 2.467501 0 4.5-2.032499 4.5-4.5v-.5c0-11.027708-8.972292-20-20-20zm-7 8c-1.541666 0-2.887852.632133-3.746094 1.597656s-1.253906 2.194011-1.253906 3.402344.395664 2.436821 1.253906 3.402344c.661677.744387 1.614944 1.286889 2.722656 1.498047-.157985.270438-.299108.546746-.412109.828125-.993636 2.474221-.552421 4.871413-.013672 6.251953v.001953c.649537 1.658523 1.906494 3.017578 3.748047 3.017578 1.706125 0 3.050442-1.143818 3.646484-2.322266.465751-.920842.659682-1.844063.81836-2.689453.079736.002367.155398.011719.236328.011719.081597 0 .157898-.009313.238281-.011719.15796.846444.350448 1.770933.816407 2.691407.596557 1.178479 1.940633 2.320312 3.646484 2.320312 1.841652 0 3.094743-1.359373 3.746094-3.015625l.001953-.001953v-.001953c.538747-1.38054.979962-3.777732-.013672-6.251953-.113006-.281369-.25412-.557695-.412109-.828125 1.107712-.211158 2.060979-.75366 2.722656-1.498047.858242-.965523 1.253906-2.194011 1.253906-3.402344s-.395664-2.436821-1.253906-3.402344-2.204428-1.597656-3.746094-1.597656-2.887852.632133-3.746094 1.597656-1.253906 2.194011-1.253906 3.402344c0 .411163.063942.821886.158203 1.226562-.662851-.119107-1.357704-.209332-2.125-.226562h-.033203-.033203c-.767296.01723-1.462149.107454-2.125.226562.094261-.404676.158203-.815399.158203-1.226562 0-1.208333-.395664-2.436821-1.253906-3.402344s-2.204428-1.597656-3.746094-1.597656zm0 3c.791666 0 1.195482.242867 1.503906.589844s.496094.868489.496094 1.410156-.18767 1.063179-.496094 1.410156-.71224.589844-1.503906.589844-1.195482-.242867-1.503906-.589844-.496094-.868489-.496094-1.410156.18767-1.063179.496094-1.410156.71224-.589844 1.503906-.589844zm14 0c.791666 0 1.195482.242867 1.503906.589844s.496094.868489.496094 1.410156-.18767 1.063179-.496094 1.410156-.71224.589844-1.503906.589844-1.195482-.242867-1.503906-.589844-.496094-.868489-.496094-1.410156.18767-1.063179.496094-1.410156.71224-.589844 1.503906-.589844zm-7 6.003906c3.873619.09566 5.072739 1.403404 5.650391 2.841797.579294 1.442484.249124 3.413375.003906 4.042969v.001953c-.308221.774878-1.040524 1.109375-.953125 1.109375-.644149 0-.679564-.10451-.96875-.675781-.239806-.473724-.420884-1.270453-.585938-2.103516.526317-.338626.853516-.758394.853516-1.220703 0-1.105-1.79-2-4-2s-4 .895-4 2c0 .462309.327199.882077.853516 1.220703-.165537.833332-.346489 1.630098-.585938 2.103516-.288957.571306-.323875.675781-.96875.675781.08539 0-.647623-.335072-.953125-1.109375-.245253-.62846-.575702-2.601643.003906-4.044922.577658-1.438393 1.776772-2.746134 5.650391-2.841797z"/></svg>