<svg height="48" viewBox="0 0 48 48" width="48" xmlns="http://www.w3.org/2000/svg"><path d="m25.779297 1.0488281c-.960508.0041878-1.856418.1001133-2.644531.2617188-1.050819.2154736-1.879243.4236371-2.644532 1.1503906-.91577.8701024-2.892608 1.4885967-5.011718 2.3886719-2.119111.9000752-4.499052 2.3482804-5.388672 5.2597656-.203839.666623-1.1859484 2.108935-2.0468752 3.845703-.8609271 1.736768-1.5810671 3.980712-.9257813 6.47461.5368227 2.041735 1.6912125 4.204508 2.2675781 5.933593-.4039694.275463-.7641889.602943-1.0625.96875-.8495355 1.041752-1.2988281 2.358699-1.2988281 3.716797 0 2.716196 2.1965715 5 5.0000005 5 .07437 0 .237156-.0018.328124 0 .38492 1.684617.909301 3.151742 1.619141 4.587891a1.50015 1.50015 0 0 0 0 .001953c2.056464 4.158206 7.143102 6.223053 12.066406 6.398437 2.461653.08769 4.93117-.314894 7.064453-1.347656 2.133286-1.032762 3.941419-2.756258 4.800782-5.150391.66091-1.841519 1.125189-3.656595 1.455078-5.435546 2.08273-.642412 3.666016-2.378183 3.666016-4.525391 0-1.918724-1.276734-3.514245-3.025391-4.285156-.031882-1.29749-.103122-2.546996-.203125-3.753907.317133-.36331 1.850309-1.554201 2.716797-3.427734.447539-.967677.676093-2.195045.40039-3.501953-.246536-1.168651-.922963-2.374287-1.951171-3.623047-.066322-1.919343-.420113-3.5904319-1.521485-4.8691405-1.156817-1.3430821-2.86529-2.1225894-5.150391-2.8769531-2.118504-2.1676432-5.003336-3.0126024-7.529296-3.1640625-.332911-.0199618-.6603-.0287397-.980469-.0273438zm.013672 3.0019531c.256897-.0014336.520676.0055087.787109.0214844 2.131469.1278059 4.403618.8505646 5.814453 2.4628906a1.50015 1.50015 0 0 0 .671875.4414063c2.280189.7307557 3.503115 1.4048033 4.101563 2.0996094.598447.6948061.855469 1.5987041.855469 3.4726561a1.50015 1.50015 0 0 0 .382812.998047c1.015119 1.135791 1.43186 2.025329 1.570312 2.681641.138455.656311.043841 1.122849-.1875 1.623046-.1026.221846-.241153.43163-.398437.638672-.00404-.035901-.007689-.075555-.011719-.111328-.815013-7.249383-7.381057-11.2877751-13.732422-11.3300779-3.175682-.021151-6.379521.9192869-8.902343 2.9765629-2.522823 2.057275-4.29606 5.250257-4.597657 9.384765a1.50015 1.50015 0 0 0 -.003906.074219s-.045994 2.722653-.083984 5.359375c-.698552-2.009803-1.703076-3.892425-2.041016-5.177734-.4107139-1.563103.0028-2.942425.714844-4.378907.712073-1.436481 1.742401-2.717404 2.226562-4.300781.55138-1.8045145 1.837517-2.5875751 3.691407-3.3749999 1.853889-.7874248 4.15502-1.3126649 5.90625-2.9765625-.129789.1232536.416037-.2281767 1.179687-.3847656.572738-.1174417 1.285948-.1949178 2.056641-.1992188zm-.166016 5.9980468c3.978135.026498 7.868726 1.857209 9.716797 5.283203-.584628-.209196-1.21101-.330078-1.865234-.330078-3.043886 0-5.542969 2.46957-5.542969 5.5 0 3.030431 2.499083 5.5 5.542969 5.5 1.302226 0 2.502941-.454477 3.453125-1.208984.241924 4.561179.003538 9.558037-1.853516 14.732422-.570137 1.588367-1.703487 2.698121-3.283203 3.46289-1.579716.76477-3.596043 1.123965-5.650391 1.050781-4.108695-.146365-8.179839-2.092674-9.484375-4.730468-.832426-1.684167-1.349499-2.980809-1.652344-4.984375a1.50015 1.50015 0 0 0 -1.558593-1.273438c-.470881.02334-.936588-.001953-1.425781-.001953-1.402574 0-2-.662196-2-2 0-.668902.250284-1.360815.625-1.820312.374713-.459498.796395-.697266 1.375-.697266.22451 0 .493462-.011838.785156-.017578.291693-.0057.765453.057764.423828-.009766a1.50015 1.50015 0 0 0 1.791016-1.458984c.03758-4.094544.117853-7.373992.11914-7.427734.252085-3.411254 1.600012-5.719796 3.498047-7.267579 1.900647-1.549912 4.419136-2.317879 6.986328-2.300781zm-4.148437 5c-3.043886 0-5.542969 2.46957-5.542969 5.5 0 3.030431 2.499083 5.5 5.542969 5.5 3.043885 0 5.544922-2.469301 5.544922-5.5s-2.501037-5.5-5.544922-5.5zm12 1.953125c1.194519 0 2.236203.578315 2.876953 1.460938.011693.084658.031361.164129.041015.25a1.50015 1.50015 0 0 0 0 .001953c.115537 1.025644.224972 2.099392.326172 3.193359-.545396 1.232641-1.782845 2.09375-3.24414 2.09375-1.972115 0-3.542969-1.56243-3.542969-3.5 0-1.937569 1.570854-3.5 3.542969-3.5zm-12 .046875c1.972114 0 3.544922 1.562699 3.544922 3.5s-1.572808 3.5-3.544922 3.5c-1.972115 0-3.542969-1.56243-3.542969-3.5 0-1.937569 1.570854-3.5 3.542969-3.5zm-.455078 3c-.553001 0-1 .447-1 1s.446999 1 1 1c.551999 0 1-.447 1-1s-.448001-1-1-1zm12 0c-.552 0-1 .447-1 1s.448 1 1 1c.551999 0 1-.447 1-1s-.448001-1-1-1zm-5.230469 3.986328a1.0001 1.0001 0 0 0 -.900391 1.333985s.983931 2.910796 1.582031 4.679687h-2.410156a1.0001 1.0001 0 1 0 0 2h2.917969c.526916 0 1.020028-.257544 1.326172-.683594.308039-.428411.387705-.980049.222656-1.472656a1.0001 1.0001 0 0 0 0-.003906c-.557919-1.649758-1.744141-5.160156-1.744141-5.160156a1.0001 1.0001 0 0 0 -.99414-.69336zm12.210937 4.730469c.592224.501422 1.019532 1.101498 1.019532 1.8125 0 .800338-.540406 1.452299-1.277344 1.962891.148067-1.285444.22691-2.545447.257812-3.775391zm-7.947265 6.269531a1.0001 1.0001 0 0 0 -.890625.498047c-1.302666 2.170825-3.30677 2.538852-5.220704 2.417969-1.913933-.120884-3.517578-.81836-3.517578-.81836a1.0001 1.0001 0 1 0 -.80664 1.830079s1.873902.837508 4.199218.984375c2.325317.146866 5.320213-.484591 7.060547-3.384766a1.0001 1.0001 0 0 0 -.824218-1.527344z"/></svg>