<svg height="48" viewBox="0 0 48 48" width="48" xmlns="http://www.w3.org/2000/svg"><path d="m25.490234 1.0488281c-3.582.08-6.695125 1.0706094-9.203125 2.8496094-.011.011-.01439.0261094-.02539.0371094-2.729 2.583-4.412235 6.5077811-4.740235 11.0507811-.038.526-.476093.927734-.996093.927734-.024 0-.049219-.001906-.074219-.003906-.5510001-.039-.9638282-.518359-.9238282-1.068359.2699999-3.74 1.3908902-7.118547 3.2128902-9.810547-1.848.198-3.7854059.7732031-5.4414059 2.1582031-2.168 1.814-3.4215625 4.6740939-3.7265625 8.4960939-.291 3.645.7059219 6.133969 1.6699219 8.542969 1.548 3.867 3.0111094 7.520031-1.0878906 16.707031-.214.48-.161375 1.038703.140625 1.470703.282.403.7405156.642578 1.2285156.642578.033 0 .0675625-.001906.1015625-.003906.3109015-.020727 7.23-.574111 10.980469-7.257813.200717.065603.398332.138932.607422.183594.779715 2.509061 1.622893 4.581046 2.628906 6.066406 2.163004 3.19284 5.884754 5.011719 9.882812 5.011719.481097 0 .968708-.026048 1.458985-.080078 4.361627-.476244 8.076293-3.066623 9.566406-6.878906v-.001953c2.346152-6.005433 3.672008-16.489449.03125-27.236329-.09123-.269311-.195408-.531734-.310547-.787109.049286-.221691.066403-.450533.007813-.683594-1.286-5.1299996-3.608282-10.55603088-14.988282-10.3320309zm3.640625 8.1503907c1.55202-.0853834 3.054314.0951114 4.386719.4902343 2.20431.8018519 3.801391 2.2933299 4.421875 4.1249999.234809.693115.440111 1.386383.630859 2.078125-.836996-.524729-1.868865-.84375-3.046874-.84375-1.75 0-3.187822.690303-4.121094 1.740234-.933273 1.049932-1.378908 2.412544-1.378906 3.759766 0 1.347222.445633 2.707881 1.378906 3.757813.933272 1.049932 2.371094 1.742187 4.121094 1.742187 1.749999 0 3.189774-.692255 4.123046-1.742187.095548-.107491.182245-.220328.267578-.333985.393166 6.148-.622024 11.603837-1.958984 15.025391-1.040301 2.662841-3.711894 4.618592-7.097656 4.988281-.379061.04183-.758551.0625-1.132813.0625-3.093941 0-5.835441-1.386199-7.398437-3.693359-.828245-1.222889-1.719896-3.290374-2.523438-6.06836a1.50015 1.50015 0 0 0 -1.439453-1.083984c-.543975-.000933-1.041781-.158769-1.460937-.421875-.072748-.06679-.153133-.125401-.240235-.177734-.607861-.484239-.998046-1.213528-.998047-2.039063 0-.3623.080156-.710117.21875-1.029297.267101-.448494.667889-.794122 1.154297-.960937.539477-.184314.900277-.658505.980469-1.205078a1.50015 1.50015 0 0 0 .113281-.65625c-.106675-1.875706-.059415-3.538096.042969-4.94336.186779.937178.587864 1.836196 1.244141 2.578125.930998 1.052505 2.367343 1.748047 4.115234 1.748047s3.18619-.695542 4.117188-1.748047 1.373046-2.416486 1.373047-3.765625c0-1.349138-.442049-2.711166-1.373047-3.763672-.930998-1.052505-2.369297-1.748046-4.117188-1.748047-1.747891.000001-3.184236.695542-4.115234 1.748047-.320799.362667-.562922.770383-.769531 1.19336.076952-.392316.137918-.645492.138671-.648438a1.50015 1.50015 0 0 0 .007813-.033203c.655766-2.839921 2.160854-4.810307 3.976562-6.11914 1.766375-1.167 3.642047-1.6410786 4.748047-1.8300786.539-.0925 1.077838-.152291 1.611328-.1816406zm6.392579 7.8496092c1.249999 0 2.062179.432745 2.628906 1.070313s.871094 1.526909.871094 2.429687-.304367 1.790166-.871094 2.427734c-.566727.637569-1.378907 1.072266-2.628906 1.072266-1.25 0-2.060227-.434697-2.626954-1.072266-.566727-.637568-.873046-1.524956-.873046-2.427734s.306319-1.792119.873046-2.429687 1.376954-1.070313 2.626954-1.070313zm-11.990235.021484c1.245441 0 2.053473.432771 2.619141 1.072266s.871093 1.532592.871094 2.439453c0 .906862-.305426 1.799959-.871094 2.439453-.565668.639495-1.3737 1.074219-2.619141 1.074219s-2.051519-.434724-2.617187-1.074219c-.565668-.639494-.871094-1.532591-.871094-2.439453 0-.906861.305426-1.799958.871094-2.439453s1.371746-1.072266 2.617187-1.072266zm1.490235 2.978516a1 1 0 0 0 0 2 1 1 0 0 0 0-2zm12 .003906c-.552 0-1 .447047-1 .998047s.448.998047 1 .998047c.551999 0 1-.447047 1-.998047s-.448001-.998047-1-.998047zm-6.988282 4.029297a1.0001 1.0001 0 0 0 -.904297 1.462891s1.381709 2.740941 2.269532 4.503906h-2.376953a1.0001 1.0001 0 1 0 0 2h2.757812c.611865 0 1.184247-.32011 1.503906-.839844.320017-.520314.348053-1.171428.074219-1.716796a1.0001 1.0001 0 0 0 -.001953-.001954c-.867225-1.722446-2.439453-4.845703-2.439453-4.845703a1.0001 1.0001 0 0 0 -.882813-.5625zm5.035156 10.646485a1.50015 1.50015 0 0 0 -1.052734.40039c-1.787347 1.614732-3.11411 1.570863-4.205078 1.28711-1.090968-.283754-1.775391-.898438-1.775391-.898438a1.5006447 1.5006447 0 1 0 -2.02539 2.214844s1.196592 1.106645 3.046875 1.58789c1.850282.481248 4.52305.246425 6.970703-1.964843a1.50015 1.50015 0 0 0 -.958985-2.626953z"/></svg>